<svg xmlns="http://www.w3.org/2000/svg" width="1320" height="360" viewBox="0 0 1320 360">
  <defs>
    <linearGradient id="bg" x1="0%" y1="0%" x2="100%" y2="100%">
      <stop offset="0%" stop-color="#e3fafc"/>
      <stop offset="50%" stop-color="#c5f6fa"/>
      <stop offset="100%" stop-color="#99e9f2"/>
    </linearGradient>
    <marker id="arrow" markerWidth="10" markerHeight="10" refX="9" refY="3" orient="auto" markerUnits="strokeWidth">
      <path d="M0,0 L10,3 L0,6 Z" fill="#0f4c5c"/>
    </marker>
    <style>
      .title { font: 700 24px Arial, sans-serif; fill: #102a43; }
      .box { fill: #eef8fb; stroke: #0f4c5c; stroke-width: 2; rx: 14; ry: 14; }
      .text { font: 16px Arial, sans-serif; fill: #102a43; }
      .small { font: 14px Arial, sans-serif; fill: #486581; }
      .line { stroke: #0f4c5c; stroke-width: 2.5; fill: none; marker-end: url(#arrow); }
    </style>
  </defs>
  <rect x="0" y="0" width="1320" height="360" fill="url(#bg)"/>
  <text x="40" y="40" class="title">Stellflow Broker Request Ingress Flow</text>
  <rect x="40" y="100" width="150" height="60" class="box"/>
  <text x="82" y="136" class="text">Client Socket</text>
  <rect x="230" y="100" width="160" height="60" class="box"/>
  <text x="266" y="136" class="text">Acceptor</text>
  <rect x="430" y="100" width="180" height="60" class="box"/>
  <text x="457" y="128" class="text">Processor Read</text>
  <text x="466" y="148" class="small">frame and header</text>
  <rect x="650" y="100" width="180" height="60" class="box"/>
  <text x="674" y="128" class="text">Decode Request</text>
  <text x="689" y="148" class="small">versioned body</text>
  <rect x="870" y="100" width="170" height="60" class="box"/>
  <text x="898" y="136" class="text">RequestChannel</text>
  <rect x="1080" y="100" width="170" height="60" class="box"/>
  <text x="1108" y="136" class="text">RequestHandler</text>
  <rect x="1080" y="220" width="170" height="60" class="box"/>
  <text x="1110" y="248" class="text">BrokerApis</text>
  <text x="1105" y="268" class="small">domain dispatch</text>
  <rect x="870" y="220" width="170" height="60" class="box"/>
  <text x="908" y="248" class="text">Encode Response</text>
  <rect x="650" y="220" width="170" height="60" class="box"/>
  <text x="683" y="248" class="text">Processor Write</text>
  <rect x="430" y="220" width="170" height="60" class="box"/>
  <text x="469" y="248" class="text">Client Reply</text>
  <path d="M190 130 H230" class="line"/>
  <path d="M390 130 H430" class="line"/>
  <path d="M610 130 H650" class="line"/>
  <path d="M830 130 H870" class="line"/>
  <path d="M1040 130 H1080" class="line"/>
  <path d="M1165 160 V220" class="line"/>
  <path d="M1080 250 H1040" class="line"/>
  <path d="M870 250 H820" class="line"/>
  <path d="M650 250 H600" class="line"/>
  <path d="M430 250 H390" class="line"/>
</svg>
